<svg id="Capa_1" enable-background="new 0 0 512 512" height="512" viewBox="0 0 512 512" width="512" xmlns="http://www.w3.org/2000/svg"><g><path d="m256 68-222.11 60.5c-14.65 25.4-24.75 53.13-29.91 82.17l206.324 45.33 45.696-89.74 19.48-49.956z" fill="#ff5b5b"/><path d="m256 247.13 20 104.855-20 110.38-202.46-49.635c-27.54-35.42-45.07-77.09-51.14-121.49z" fill="#ff5b5b"/><path d="m512 256c0 68.38-26.63 132.67-74.98 181.02s-112.64 74.98-181.02 74.98v-444l-10-33.739 10-34.261c68.38 0 132.67 26.63 181.02 74.98s74.98 112.64 74.98 181.02z" fill="#ff1f3e"/><path d="m281.87 456.87-25.87 55.13c-68.38 0-132.67-26.63-181.02-74.98-7.71-7.71-14.86-15.82-21.44-24.29h202.46z" fill="#ff936a"/><path d="m256 0v68l-60.5 60.5h-161.61c11.13-19.33 24.89-37.32 41.09-53.52 48.35-48.35 112.64-74.98 181.02-74.98z" fill="#ff936a"/><path d="m311.48 412.73 67.77 67.78c-37.32 20.56-79.45 31.49-123.25 31.49v-99.27z" fill="#ff5b5b"/><path d="m211.58 210.67h-207.6c-2.64 14.81-3.98 29.97-3.98 45.33 0 11.89.81 23.66 2.4 35.24h253.6l30-62.49-30-62.49z" fill="#ff936a"/><path d="m313.11 291.24h-57.11v-124.98h239.9c7.95 21.29 13.05 43.7 15.08 66.74h-139.63z" fill="#ff5b5b"/><g><path d="m319.369 86.304h30v30h-30z" fill="#af3244"/><path d="m105.718 339.486h30v30h-30z" fill="#ff1f3e"/><path d="m382.282 306.217h30v30h-30z" fill="#af3244"/></g></g></svg>